# xmcd
#
# Track frame offsets: 
#        150
#        43908
#        77269
#        105851
#        123649
#        132996
#        156091
#        165578
#
# Disc length: 2638 seconds
#
# Revision: 1
# Processed by: cddbd v1.5.2PL0 Copyright (c) Steve Scherf et al.
# Submitted via: ExactAudioCopy v1.3
#
DISCID=5a0a4c08
DTITLE=Louis Sclavis - Characters on a Wall
DYEAR=2019
DGENRE=Jazz
TTITLE0=L'heure Pasolini
TTITLE1=Shadows and Lines
TTITLE2=La dame de Martigues
TTITLE3=Extases
TTITLE4=Esquisse 1
TTITLE5=Prison
TTITLE6=Esquisse 2
TTITLE7=Darwich dans la ville
EXTD=YEAR: 2018
EXTT0=
EXTT1=
EXTT2=
EXTT3=
EXTT4=
EXTT5=
EXTT6=
EXTT7=
PLAYORDER=
